<svg version="1.2" xmlns="http://www.w3.org/2000/svg" viewBox="0 0 512 512" width="512" height="512">
	<title>file-svg</title>
	<path id="Layer" fill-rule="evenodd" d="m311.4 162.9c-28.3 25.6-34.1 68.8-12 101.2l54.4 79.7c16.8 24.6 50.4 31 75.1 14.2l38.8-26.5c24.6-16.9 30.9-50.5 14.1-75.1l-54.4-79.7c-22.3-32.7-65.2-42.9-99.5-25.2l48.7 71.4-16.5 11.3z"/>
	<path id="Layer" fill-rule="evenodd" d="m113.8 67.7c10.5 12.3 29.4 18.9 66.9 11.6 34.9-6.7 63.1-1.1 85.8 11.1 22.5 12.2 38.8 30.4 50.7 47.9 3.2 4.5 2 10.8-2.6 13.9-4.5 3.1-10.8 1.9-13.9-2.7-10.9-15.9-25-31.4-43.7-41.5-18.5-9.9-42-14.9-72.5-9-40.3 7.7-68.4 2.1-85.9-18.2-16.5-19.2-20.8-49-21.6-82.1l20-0.4c0.8 33.1 5.4 56.1 16.8 69.4z"/>
	<path id="Layer" fill-rule="evenodd" d="m313.1 483.3c-35.6 0.5-67.7-58.6-121.2-58-66.1 0.8-71.8 61.2-120.1 61.8-57.1 0.7-15.9-205.9 60.6-206.8 11.1-0.2 37.3 17.4 58.1 17.1 20.8-0.3 45.1-18.4 57.7-18.6 76.5-0.9 122 203.8 64.9 204.5zm-144.2-127.6c-0.2-22.2-18.4-39.9-40.5-39.7-22.2 0.3-39.9 18.5-39.6 40.7 0.3 22.2 18.4 39.9 40.6 39.7 22.1-0.3 39.8-18.5 39.5-40.7zm75.3 8c0-5-4.1-8.9-9-8.8-4.9 0-8.9 4.1-8.8 9 0.1 4.9 4.1 8.9 9 8.8 5 0 8.9-4.1 8.8-9zm27.6 26.4c0-4.9-4.1-8.9-9-8.8-4.9 0.1-8.8 4.1-8.8 9 0.1 5 4.1 8.9 9 8.9 5-0.1 8.9-4.1 8.8-9.1zm-0.6-53.5c-0.1-5-4.1-8.9-9-8.8-5 0-8.9 4.1-8.8 9 0 4.9 4.1 8.9 9 8.8 4.9-0.1 8.8-4.1 8.8-9zm27 26.4c0-4.9-4.1-8.9-9-8.8-4.9 0.1-8.8 4.1-8.8 9 0.1 5 4.1 8.9 9 8.9 5-0.1 8.9-4.1 8.8-9.1zm-147.1-7.1c0.2 12.3-9.7 22.4-22 22.6-12.3 0.2-22.4-9.7-22.5-22-0.2-12.4 9.7-22.5 22-22.6 12.3-0.2 22.4 9.7 22.5 22z"/>
	<path id="Layer" fill-rule="evenodd" d="m73.4-33.9c4.7 3 6 9.2 3 13.8-16.2 25-22.6 69.7-14.9 107.8 3.8 18.9 10.9 35 20.8 45.8 9.6 10.6 22.2 16.5 38.6 15.3 18.4-1.4 33.2 3.9 44.7 13.8 11.1 9.6 18.5 23.1 23.4 37.1 9.8 27.9 11 61.2 11 81.5 0 5.6-4.5 10-10 10-5.5 0-10-4.4-10-10 0-20.1-1.3-50.4-9.9-74.9-4.2-12.1-10-22-17.6-28.6-7.3-6.3-16.8-10-30-9-23.1 1.8-41.5-6.9-55-21.7-13.1-14.4-21.3-34.3-25.6-55.3-8.4-41.7-2.1-92.1 17.7-122.6 3-4.7 9.2-6 13.8-3z"/>
</svg>