<svg width="512" height="512" viewBox="0 0 512 512" fill="none" xmlns="http://www.w3.org/2000/svg">
<path fill-rule="evenodd" clip-rule="evenodd" d="M63.2965 34.414C49.2799 34.414 37.9171 45.7767 37.9172 59.7933C37.9171 210.093 37.9171 314.129 37.9171 456.624C37.9171 457.765 37.9924 458.888 38.1381 459.988C39.7814 472.418 50.4192 482.009 63.2973 482.009L268.549 482.009C268.969 482.009 269.389 482.008 269.809 482.005L432.36 482.006C455.934 482.006 475.044 462.895 475.044 439.322L475.044 276.181L475.044 275.918C475.045 275.783 475.045 275.648 475.045 275.513L475.045 59.7988C475.045 59.7464 475.044 59.6971 475.044 59.6506C474.967 45.6996 463.634 34.4139 449.665 34.4139C408.051 34.4139 526.613 34.4138 63.2965 34.414ZM63.2965 59.7933C192.72 59.7933 322.254 59.7932 449.664 59.7933L449.665 107.081C449.665 113.31 449.502 119.502 449.18 125.651C447.482 127.041 445.795 128.408 444.117 129.75C378.338 182.36 326.621 197.915 241.005 189.054C232.132 188.136 222.894 186.955 213.239 185.526C216.315 194.795 218.984 203.696 221.248 212.274C245.528 304.284 222.241 370.57 154.971 445.419C152.749 447.892 150.477 450.386 148.157 452.905L63.2965 455.772C63.2965 127.625 63.2965 258.34 63.2965 59.7933ZM312.3 384.882C316.355 366.685 315.864 347.259 310.761 324.438C308.886 316.053 306.389 307.209 303.265 297.8C313.063 299.25 322.219 300.318 330.857 300.972C354.743 302.781 374.673 301.424 393.274 296.21C418.311 256.228 435.221 210.895 441.479 163.672C414.437 183.228 388.09 197.375 359.469 206.11C325.397 216.509 289.73 218.745 248.148 215.22C259.084 261.342 259.103 301.101 246.328 339.715C236.119 370.572 217.23 410.491 193.03 440.092C224.946 433.601 255.155 421.568 282.822 405.134C293.005 398.879 302.843 392.116 312.3 384.882ZM444.444 301.054C428.525 369.563 377.63 424.653 311.598 446.489C321.052 432.644 328.465 418.606 333.387 403.734C341.493 379.239 342.301 354.32 337.15 326.793C361.153 327.962 382.763 325.99 403.697 319.602C417.931 315.259 431.286 309.045 444.444 301.054Z"/>
</svg>
